<?xml version="1.0" encoding="UTF-8" standalone="no"?>
<!DOCTYPE svg PUBLIC "-//W3C//DTD SVG 1.1//EN" "http://www.w3.org/Graphics/SVG/1.1/DTD/svg11.dtd">
<svg width="100%" height="100%" viewBox="0 0 566 550" version="1.1" xmlns="http://www.w3.org/2000/svg" xmlns:xlink="http://www.w3.org/1999/xlink" xml:space="preserve" xmlns:serif="http://www.serif.com/" style="fill-rule:evenodd;clip-rule:evenodd;stroke-linejoin:round;stroke-miterlimit:2;">
    <g id="kNNnyW.tif">
        <g>
            <path d="M290.48,42.74C295.07,44.56 300.83,44.23 305.68,45.01C407.1,61.45 447.23,143.09 432.04,239.67C427.77,266.79 421.48,272.67 410.71,295.18C399.87,317.84 426.69,302.06 434.21,295.73C472.17,263.78 481.76,213.24 471.64,166.47C464.86,135.14 434.35,83.46 454.73,54.77C462.52,43.8 483.31,38.28 488.57,53.74C491.95,63.66 488.06,65 486.36,73.42C482.08,94.52 496.58,104.85 506.48,120.65C530.09,158.33 539.74,217.95 530.53,261.29C520.65,307.77 487.47,349.8 446.21,372.57C437.09,377.61 423.58,381.35 415.91,386.18C400.22,396.07 420.21,408.99 428.91,414.77C450.19,428.93 464.23,431.81 489.32,425.65C496.29,423.94 507.71,418.64 513.84,418.15C518.68,417.77 524.39,421.43 524.72,426.57C525.31,435.92 510.1,450.94 502.99,456.28C466.36,483.8 414.88,479.28 382.77,446.93C378.08,442.21 369.84,424.74 362.04,429.84C354.24,434.94 363.9,454.64 366.96,460.73C374.67,476.06 383.97,487.66 401.06,492.5C410.51,495.17 426.58,494.67 420.71,509.74C415.49,523.15 390.92,529.36 378.11,526.42C346.92,519.25 331.41,489.35 313.85,466.93C305.9,456.78 296.11,444.05 281.68,447.57C270.24,450.36 243.42,480.48 232.07,489.77C208.84,508.78 160.1,538.7 131.47,516.57C124.1,510.87 119.33,492.8 127.7,488.21C135.48,483.95 144.83,488.04 154.55,485.11C166.65,481.46 196.08,456.3 197.69,443.42C199.03,432.66 195.83,427.77 184.42,430.15C176.88,431.72 159.99,442.87 150.75,446.37C125.7,455.86 105.12,455.54 83.43,438.87C74.02,431.64 67.49,422.38 58.96,414.43C47.88,404.11 33.77,396.58 25.01,384.01L25.01,377.02C30.18,366.47 40.61,368.37 50.18,371.32C77.63,379.76 85.12,408.54 120.05,401.7C131.51,399.46 139.35,393.06 147.76,385.49C148.22,383.46 146.96,384.11 145.76,383.57C54.04,341.78 15.46,266.27 42.04,166.06C48.95,140.02 75.19,104.98 73.94,81.12C73.39,70.65 65.78,59.86 78.91,54.23C92.04,48.6 100.26,55.26 105.33,67.71C122.64,110.21 91.9,160.46 91.8,205.9C91.72,246.56 115.8,301.25 155.76,316.67C158.25,317.63 165.52,321.04 166.64,317.54C167.1,316.03 166.43,314.81 165.96,313.46C163.87,307.44 152.89,294.58 148.95,287.55C103.01,205.6 150.41,75.44 242.36,48.02L268.52,42.75L290.48,42.75L290.48,42.74ZM477.75,61.78C472.28,63.69 468.97,77.12 475.67,77.71C481.47,78.22 485.31,62.97 477.75,61.78ZM86.64,81.41C90.23,77.77 86.48,65.39 80.6,66.83C74.04,68.43 80.23,87.93 86.64,81.41ZM476.13,87.65C474.39,92.52 475.8,98.57 481.58,99.62C485.59,95.64 481.61,87.33 476.13,87.65ZM82.56,91.79C79.96,92.48 77.78,98.13 77.33,100.59C75.72,109.4 88.22,101.03 85.74,93.3C85.09,91.7 84.23,91.35 82.57,91.79L82.56,91.79ZM59.58,149.61C55.49,150.3 50.67,166.06 56.55,168.44C60.5,169.1 66.95,150.56 59.58,149.61ZM53.84,180.54C45.7,178.37 42.96,199.48 47.56,200.49C54.65,202.04 58.14,185.26 53.84,180.54ZM520.62,197.5C517.3,198.51 515.61,214.44 520.53,214.44C526.86,214.44 526.42,195.73 520.62,197.5ZM45.64,217.48C39.35,219.12 40.62,239.4 46.44,239.39C54.35,239.37 52.86,215.6 45.64,217.48ZM518.3,227.65C514.93,230.93 513.64,245.36 519.53,245.36C526.37,245.36 525.27,220.87 518.3,227.65ZM50.65,255.44C42.36,257.77 50.84,278.98 55.32,278.2C61.65,277.11 58.69,257.88 53.24,255.44L50.65,255.44ZM517.95,261.38C510.37,259.06 504.3,278.56 510.74,280.15C516.56,281.59 521.4,265.78 517.95,261.38ZM492.18,312.09C496.7,315.15 509.51,297.67 503.08,293.69C497.37,290.16 487.94,306.91 492.18,312.09ZM68.63,295.36C59.27,297.72 69.69,321.03 77.94,318.75C88.21,315.11 74.96,293.76 68.63,295.36ZM472.86,324.36C467.11,325.5 454.95,339.05 462.13,342.62C469.31,346.19 481.23,332.38 478.39,326.42L476.43,324.28C475.22,323.88 474.06,324.11 472.86,324.35L472.86,324.36ZM95.51,333.25C87.73,339.82 107.64,357.14 112.38,353.22C118.62,348.06 102.33,330.92 95.51,333.25ZM444.03,353.24C435.27,352.37 421.19,357.86 421.65,368.13C425.43,373.21 449.29,362.56 444.03,353.24ZM41.69,381.24C33.97,383.51 39.38,394.58 47.46,394.11C56.32,393.59 51.86,378.25 41.69,381.24ZM58.65,395.19C52.04,397.15 60.84,409.18 65.98,405.56C69.17,403.31 64.99,393.31 58.65,395.19ZM166.46,420.2C154.72,422.21 149.43,434.92 165.78,431.49C176.34,429.28 183.71,417.24 166.46,420.2ZM129.89,441.83C132.08,445.09 154.62,441.04 145.77,433.43C142.07,431.29 126.38,436.6 129.89,441.83ZM119.82,443.91C122.9,433.74 97.19,436.09 103.45,441C107.2,443.94 115.21,444.17 119.82,443.91ZM493.83,440.15C488.68,440.99 483.27,444.4 483.26,450.18C486.66,461.77 507.62,448.21 500.12,441.38C497.98,439.43 496.52,439.72 493.83,440.16L493.83,440.15ZM468.9,453.07C457.21,454.6 454.79,467.47 468.41,464.63C478.47,462.54 478.17,451.85 468.9,453.07ZM432.3,460.97C426.69,469.05 457.29,469.16 446.67,460.87C441.9,457.15 437.36,459.2 432.3,460.97ZM139.51,501.97C131.58,503.61 134.79,513.57 143.36,514.68C159.16,516.73 150.12,499.78 139.51,501.97ZM363.97,507.86C358.22,509.56 370.5,517.43 373.61,516.63C381.7,514.54 368.9,506.4 363.97,507.86ZM394.05,510.02C390.3,510.41 382.18,512.34 386.2,517.36C388.99,520.84 406.5,519.18 401.28,511.25C398.93,509.48 396.75,509.73 394.05,510.01L394.05,510.02ZM169.71,514.78C167.63,513.73 158.43,510.8 157.79,514.36C156.71,520.35 172.19,518.1 169.71,514.78Z" style="fill:rgb(34,211,238);fill-rule:nonzero;"/>
            <path d="M274.51,307.2C277.762,319.224 276.514,329.828 271.558,338.182C266.35,346.962 257.047,353.256 244.57,356.1C221.33,361.4 193.62,340.99 191.69,316.67C187.35,261.91 260.95,257.04 274.51,307.2ZM217.98,295.58C210.1,303.41 209.19,318.7 215.63,327.65C230.86,348.83 264.89,336.01 254.76,307.49C249.61,292.99 230.39,283.25 217.98,295.58Z" style="fill:rgb(24,180,204);fill-rule:nonzero;"/>
            <!-- Left eye: X mark -->
            <line x1="197" y1="203" x2="237" y2="243" stroke="black" stroke-width="12" stroke-linecap="round"/>
            <line x1="237" y1="203" x2="197" y2="243" stroke="black" stroke-width="12" stroke-linecap="round"/>
            <!-- Right eye: X mark -->
            <line x1="299" y1="214" x2="339" y2="254" stroke="black" stroke-width="12" stroke-linecap="round"/>
            <line x1="339" y1="214" x2="299" y2="254" stroke="black" stroke-width="12" stroke-linecap="round"/>
            <path d="M68.63,295.36C74.96,293.76 88.21,315.11 77.94,318.75C69.69,321.02 59.27,297.72 68.63,295.36Z" style="fill:rgb(24,180,204);fill-rule:nonzero;"/>
            <path d="M95.51,333.25C102.33,330.92 118.62,348.05 112.38,353.22C107.64,357.14 87.73,339.82 95.51,333.25Z" style="fill:rgb(24,180,204);fill-rule:nonzero;"/>
            <path d="M444.03,353.24C449.29,362.56 425.43,373.21 421.65,368.13C421.2,357.86 435.27,352.37 444.03,353.24Z" style="fill:rgb(24,180,204);fill-rule:nonzero;"/>
            <path d="M472.86,324.36C474.06,324.12 475.23,323.89 476.43,324.29L478.39,326.43C481.23,332.38 469,346.04 462.13,342.63C455.26,339.22 467.11,325.51 472.86,324.37L472.86,324.36Z" style="fill:rgb(24,180,204);fill-rule:nonzero;"/>
            <path d="M493.83,440.15C496.52,439.71 497.98,439.42 500.12,441.37C507.62,448.2 486.66,461.76 483.26,450.17C483.27,444.4 488.68,440.99 493.83,440.14L493.83,440.15Z" style="fill:rgb(24,180,204);fill-rule:nonzero;"/>
            <path d="M50.65,255.44L53.24,255.44C58.69,257.89 61.66,277.11 55.32,278.2C50.84,278.97 42.36,257.77 50.65,255.44Z" style="fill:rgb(24,180,204);fill-rule:nonzero;"/>
            <path d="M166.46,420.2C183.71,417.24 176.34,429.28 165.78,431.49C149.42,434.91 154.72,422.21 166.46,420.2Z" style="fill:rgb(24,180,204);fill-rule:nonzero;"/>
            <path d="M45.64,217.48C52.86,215.6 54.34,239.37 46.44,239.39C40.63,239.4 39.36,219.12 45.64,217.48Z" style="fill:rgb(24,180,204);fill-rule:nonzero;"/>
            <path d="M139.51,501.97C150.12,499.78 159.16,516.73 143.36,514.68C134.79,513.57 131.58,503.61 139.51,501.97Z" style="fill:rgb(24,180,204);fill-rule:nonzero;"/>
            <path d="M492.18,312.09C487.94,306.91 497.37,290.16 503.08,293.69C509.51,297.67 496.7,315.15 492.18,312.09Z" style="fill:rgb(24,180,204);fill-rule:nonzero;"/>
            <path d="M53.84,180.54C58.13,185.25 54.65,202.03 47.56,200.49C42.97,199.49 45.7,178.37 53.84,180.54Z" style="fill:rgb(24,180,204);fill-rule:nonzero;"/>
            <path d="M468.9,453.07C478.17,451.86 478.47,462.54 468.41,464.63C454.8,467.46 457.21,454.6 468.9,453.07Z" style="fill:rgb(24,180,204);fill-rule:nonzero;"/>
            <path d="M517.95,261.38C521.4,265.77 516.57,281.59 510.74,280.15C504.29,278.56 510.36,259.06 517.95,261.38Z" style="fill:rgb(24,180,204);fill-rule:nonzero;"/>
            <path d="M41.69,381.24C51.86,378.25 56.32,393.59 47.46,394.11C39.38,394.58 33.97,383.51 41.69,381.24Z" style="fill:rgb(24,180,204);fill-rule:nonzero;"/>
            <path d="M129.89,441.83C126.37,436.6 142.07,431.3 145.77,433.43C154.63,441.03 132.08,445.08 129.89,441.83Z" style="fill:rgb(24,180,204);fill-rule:nonzero;"/>
            <path d="M518.3,227.65C525.27,220.87 526.37,245.36 519.53,245.36C513.64,245.36 514.93,230.93 518.3,227.65Z" style="fill:rgb(24,180,204);fill-rule:nonzero;"/>
            <path d="M394.05,510.02C396.75,509.74 398.93,509.48 401.28,511.26C406.5,519.19 388.99,520.85 386.2,517.37C382.18,512.35 390.3,510.42 394.05,510.03L394.05,510.02Z" style="fill:rgb(24,180,204);fill-rule:nonzero;"/>
            <path d="M86.64,81.41C80.22,87.92 74.04,68.42 80.6,66.83C86.48,65.4 90.23,77.77 86.64,81.41Z" style="fill:rgb(24,180,204);fill-rule:nonzero;"/>
            <path d="M59.58,149.61C66.95,150.56 60.5,169.09 56.55,168.44C50.67,166.06 55.49,150.3 59.58,149.61Z" style="fill:rgb(24,180,204);fill-rule:nonzero;"/>
            <path d="M477.75,61.78C485.31,62.98 481.46,78.23 475.67,77.71C468.97,77.12 472.29,63.69 477.75,61.78Z" style="fill:rgb(24,180,204);fill-rule:nonzero;"/>
            <path d="M432.3,460.97C437.36,459.21 441.9,457.15 446.67,460.87C457.29,469.15 426.69,469.04 432.3,460.97Z" style="fill:rgb(24,180,204);fill-rule:nonzero;"/>
            <path d="M520.62,197.5C526.43,195.73 526.86,214.45 520.53,214.44C515.61,214.44 517.29,198.51 520.62,197.5Z" style="fill:rgb(24,180,204);fill-rule:nonzero;"/>
            <path d="M119.82,443.91C115.21,444.17 107.2,443.94 103.45,441C97.19,436.09 122.9,433.73 119.82,443.91Z" style="fill:rgb(24,180,204);fill-rule:nonzero;"/>
            <path d="M58.65,395.19C64.99,393.31 69.18,403.32 65.98,405.56C60.84,409.18 52.04,397.15 58.65,395.19Z" style="fill:rgb(24,180,204);fill-rule:nonzero;"/>
            <path d="M82.56,91.79C84.22,91.35 85.08,91.7 85.73,93.3C88.22,101.03 75.71,109.4 77.32,100.59C77.77,98.12 79.95,92.47 82.55,91.79L82.56,91.79Z" style="fill:rgb(24,180,204);fill-rule:nonzero;"/>
            <path d="M363.97,507.86C368.9,506.4 381.7,514.54 373.61,516.63C370.51,517.43 358.23,509.56 363.97,507.86Z" style="fill:rgb(24,180,204);fill-rule:nonzero;"/>
            <path d="M476.13,87.65C481.62,87.33 485.59,95.64 481.58,99.62C475.8,98.57 474.38,92.52 476.13,87.65Z" style="fill:rgb(24,180,204);fill-rule:nonzero;"/>
            <path d="M169.71,514.78C172.19,518.1 156.72,520.35 157.79,514.36C158.43,510.81 167.63,513.74 169.71,514.78Z" style="fill:rgb(24,180,204);fill-rule:nonzero;"/>
            <path d="M217.98,295.58C230.39,283.25 249.6,292.99 254.76,307.49C264.89,336.01 230.87,348.83 215.63,327.65C209.19,318.7 210.1,303.41 217.98,295.58Z" style="fill-rule:nonzero;"/>
        </g>
    </g>
</svg>
