<svg viewBox="0 0 565.75 549.88" xmlns="http://www.w3.org/2000/svg"><path d="m290.48 42.74c4.59 1.82 10.35 1.49 15.2 2.27 101.42 16.44 141.55 98.08 126.36 194.66-4.27 27.12-10.56 33-21.33 55.51-10.84 22.66 15.98 6.88 23.5.55 37.96-31.95 47.55-82.49 37.43-129.26-6.78-31.33-37.29-83.01-16.91-111.7 7.79-10.97 28.58-16.49 33.84-1.03 3.38 9.92-.51 11.26-2.21 19.68-4.28 21.1 10.22 31.43 20.12 47.23 23.61 37.68 33.26 97.3 24.05 140.64-9.88 46.48-43.06 88.51-84.32 111.28-9.12 5.04-22.63 8.78-30.3 13.61-15.69 9.89 4.3 22.81 13 28.59 21.28 14.16 35.32 17.04 60.41 10.88 6.97-1.71 18.39-7.01 24.52-7.5 4.84-.38 10.55 3.28 10.88 8.42.59 9.35-14.62 24.37-21.73 29.71-36.63 27.52-88.11 23-120.22-9.35-4.69-4.72-12.93-22.19-20.73-17.09s1.86 24.8 4.92 30.89c7.71 15.33 17.01 26.93 34.1 31.77 9.45 2.67 25.52 2.17 19.65 17.24-5.22 13.41-29.79 19.62-42.6 16.68-31.19-7.17-46.7-37.07-64.26-59.49-7.95-10.15-17.74-22.88-32.17-19.36-11.44 2.79-38.26 32.91-49.61 42.2-23.23 19.01-71.97 48.93-100.6 26.8-7.37-5.7-12.14-23.77-3.77-28.36 7.78-4.26 17.13-.17 26.85-3.1 12.1-3.65 41.53-28.81 43.14-41.69 1.34-10.76-1.86-15.65-13.27-13.27-7.54 1.57-24.43 12.72-33.67 16.22-25.05 9.49-45.63 9.17-67.32-7.5-9.41-7.23-15.94-16.49-24.47-24.44-11.08-10.32-25.19-17.85-33.95-30.42v-6.99c5.17-10.55 15.6-8.65 25.17-5.7 27.45 8.44 34.94 37.22 69.87 30.38 11.46-2.24 19.3-8.64 27.71-16.21.46-2.03-.8-1.38-2-1.92-91.72-41.79-130.3-117.3-103.72-217.51 6.91-26.04 33.15-61.08 31.9-84.94-.55-10.47-8.16-21.26 4.97-26.89s21.35 1.03 26.42 13.48c17.31 42.5-13.43 92.75-13.53 138.19-.08 40.66 24 95.35 63.96 110.77 2.49.96 9.76 4.37 10.88.87.46-1.51-.21-2.73-.68-4.08-2.09-6.02-13.07-18.88-17.01-25.91-45.94-81.95 1.46-212.11 93.41-239.53l26.16-5.27h21.96zm187.27 19.04c-5.47 1.91-8.78 15.34-2.08 15.93 5.8.51 9.64-14.74 2.08-15.93zm-391.11 19.63c3.59-3.64-.16-16.02-6.04-14.58-6.56 1.6-.37 21.1 6.04 14.58zm389.49 6.24c-1.74 4.87-.33 10.92 5.45 11.97 4.01-3.98.03-12.29-5.45-11.97zm-393.57 4.14c-2.6.69-4.78 6.34-5.23 8.8-1.61 8.81 10.89.44 8.41-7.29-.65-1.6-1.51-1.95-3.17-1.51zm-22.98 57.82c-4.09.69-8.91 16.45-3.03 18.83 3.95.66 10.4-17.88 3.03-18.83zm-5.74 30.93c-8.14-2.17-10.88 18.94-6.28 19.95 7.09 1.55 10.58-15.23 6.28-19.95zm157.52 17.11c-24.36 4.97-24.22 55.65 6.68 51.58 26.78-3.53 25.9-58.22-6.68-51.58zm309.26-.15c-3.32 1.01-5.01 16.94-.09 16.94 6.33 0 5.89-18.71.09-16.94zm-208.45 11.14c-23.32 4.03-22.92 47.66-1 51.41 35.26 6.03 35.28-57.33 1-51.41zm-266.53 8.84c-6.29 1.64-5.02 21.92.8 21.91 7.91-.02 6.42-23.79-.8-21.91zm472.66 10.17c-3.37 3.28-4.66 17.71 1.23 17.71 6.84 0 5.74-24.49-1.23-17.71zm-467.65 27.79c-8.29 2.33.19 23.54 4.67 22.76 6.33-1.09 3.37-20.32-2.08-22.76zm467.3 5.94c-7.58-2.32-13.65 17.18-7.21 18.77 5.82 1.44 10.66-14.37 7.21-18.77zm-273.38 94.72c31.5 2.07 66.02-25.52 54.94-59.43-8.31-25.46-13.09 9.69-25 10.53-13.56-50.16-87.16-45.29-82.82 9.47 1.93 24.33 29.64 44.73 52.88 39.43zm247.61-44.01c4.52 3.06 17.33-14.42 10.9-18.4-5.71-3.53-15.14 13.22-10.9 18.4zm-423.55-16.73c-9.36 2.36 1.06 25.67 9.31 23.39 10.27-3.64-2.98-24.99-9.31-23.39zm404.23 29c-5.75 1.14-17.91 14.69-10.73 18.26s19.1-10.24 16.26-16.2l-1.96-2.14c-1.21-.4-2.37-.17-3.57.07zm-377.35 8.89c-7.78 6.57 12.13 23.89 16.87 19.97 6.24-5.16-10.05-22.3-16.87-19.97zm348.52 19.99c-8.76-.87-22.84 4.62-22.38 14.89 3.78 5.08 27.64-5.57 22.38-14.89zm-402.34 28c-7.72 2.27-2.31 13.34 5.77 12.87 8.86-.52 4.4-15.86-5.77-12.87zm16.96 13.95c-6.61 1.96 2.19 13.99 7.33 10.37 3.19-2.25-.99-12.25-7.33-10.37zm107.81 25.01c-11.74 2.01-17.03 14.72-.68 11.29 10.56-2.21 17.93-14.25.68-11.29zm-36.57 21.63c2.19 3.26 24.73-.79 15.88-8.4-3.7-2.14-19.39 3.17-15.88 8.4zm-10.07 2.08c3.08-10.17-22.63-7.82-16.37-2.91 3.75 2.94 11.76 3.17 16.37 2.91zm374.01-3.76c-5.15.84-10.56 4.25-10.57 10.03 3.4 11.59 24.36-1.97 16.86-8.8-2.14-1.95-3.6-1.66-6.29-1.22zm-24.93 12.92c-11.69 1.53-14.11 14.4-.49 11.56 10.06-2.09 9.76-12.78.49-11.56zm-36.6 7.9c-5.61 8.08 24.99 8.19 14.37-.1-4.77-3.72-9.31-1.67-14.37.1zm-292.79 41c-7.93 1.64-4.72 11.6 3.85 12.71 15.8 2.05 6.76-14.9-3.85-12.71zm224.46 5.89c-5.75 1.7 6.53 9.57 9.64 8.77 8.09-2.09-4.71-10.23-9.64-8.77zm30.08 2.16c-3.75.39-11.87 2.32-7.85 7.34 2.79 3.48 20.3 1.82 15.08-6.11-2.35-1.77-4.53-1.52-7.23-1.24zm-224.34 4.76c-2.08-1.05-11.28-3.98-11.92-.42-1.08 5.99 14.4 3.74 11.92.42z" fill="#22D3EE"/><path d="m274.51 307.2c6.67 24.66-5.59 43.35-29.94 48.9-23.24 5.3-50.95-15.11-52.88-39.43-4.34-54.76 69.26-59.63 82.82-9.47zm-56.53-11.62c-7.88 7.83-8.79 23.12-2.35 32.07 15.23 21.18 49.26 8.36 39.13-20.16-5.15-14.5-24.37-24.24-36.78-11.91z" fill="#22D3EE"/><path d="m211.36 197.65c32.57-6.65 33.45 48.05 6.68 51.58-30.9 4.07-31.04-46.6-6.68-51.58z" fill="#0A0F1C"/><path d="m312.17 208.64c34.29-5.92 34.26 57.44-1 51.41-21.93-3.75-22.32-47.38 1-51.41z" fill="#0A0F1C"/><path d="m244.57 356.1c24.36-5.55 36.61-24.24 29.94-48.9 11.91-.84 16.69-36 25-10.53 11.07 33.91-23.45 61.5-54.94 59.43z" fill="#1A8FA0"/><path d="m68.63 295.36c6.33-1.6 19.58 19.75 9.31 23.39-8.25 2.27-18.67-21.03-9.31-23.39z" fill="#22D3EE"/><path d="m95.51 333.25c6.82-2.33 23.11 14.8 16.87 19.97-4.74 3.92-24.65-13.4-16.87-19.97z" fill="#22D3EE"/><path d="m444.03 353.24c5.26 9.32-18.6 19.97-22.38 14.89-.45-10.27 13.62-15.76 22.38-14.89z" fill="#22D3EE"/><path d="m472.86 324.36c1.2-.24 2.37-.47 3.57-.07l1.96 2.14c2.84 5.95-9.39 19.61-16.26 16.2s4.98-17.12 10.73-18.26z" fill="#22D3EE"/><path d="m493.83 440.15c2.69-.44 4.15-.73 6.29 1.22 7.5 6.83-13.46 20.39-16.86 8.8.01-5.77 5.42-9.18 10.57-10.03z" fill="#22D3EE"/><path d="m50.65 255.44h2.59c5.45 2.45 8.42 21.67 2.08 22.76-4.48.77-12.96-20.43-4.67-22.76z" fill="#22D3EE"/><path d="m166.46 420.2c17.25-2.96 9.88 9.08-.68 11.29-16.36 3.42-11.06-9.28.68-11.29z" fill="#22D3EE"/><path d="m45.64 217.48c7.22-1.88 8.7 21.89.8 21.91-5.81.01-7.08-20.27-.8-21.91z" fill="#22D3EE"/><path d="m139.51 501.97c10.61-2.19 19.65 14.76 3.85 12.71-8.57-1.11-11.78-11.07-3.85-12.71z" fill="#22D3EE"/><path d="m492.18 312.09c-4.24-5.18 5.19-21.93 10.9-18.4 6.43 3.98-6.38 21.46-10.9 18.4z" fill="#22D3EE"/><path d="m53.84 180.54c4.29 4.71.81 21.49-6.28 19.95-4.59-1-1.86-22.12 6.28-19.95z" fill="#22D3EE"/><path d="m468.9 453.07c9.27-1.21 9.57 9.47-.49 11.56-13.61 2.83-11.2-10.03.49-11.56z" fill="#22D3EE"/><path d="m517.95 261.38c3.45 4.39-1.38 20.21-7.21 18.77-6.45-1.59-.38-21.09 7.21-18.77z" fill="#22D3EE"/><path d="m41.69 381.24c10.17-2.99 14.63 12.35 5.77 12.87-8.08.47-13.49-10.6-5.77-12.87z" fill="#22D3EE"/><path d="m129.89 441.83c-3.52-5.23 12.18-10.53 15.88-8.4 8.86 7.6-13.69 11.65-15.88 8.4z" fill="#22D3EE"/><g fill="#22D3EE"><path d="m518.3 227.65c6.97-6.78 8.07 17.71 1.23 17.71-5.89 0-4.6-14.43-1.23-17.71z"/><path d="m394.05 510.02c2.7-.28 4.88-.54 7.23 1.24 5.22 7.93-12.29 9.59-15.08 6.11-4.02-5.02 4.1-6.95 7.85-7.34z"/><path d="m86.64 81.41c-6.42 6.51-12.6-12.99-6.04-14.58 5.88-1.43 9.63 10.94 6.04 14.58z"/><path d="m59.58 149.61c7.37.95.92 19.48-3.03 18.83-5.88-2.38-1.06-18.14 3.03-18.83z"/></g><path d="m477.75 61.78c7.56 1.2 3.71 16.45-2.08 15.93-6.7-.59-3.38-14.02 2.08-15.93z" fill="#22D3EE"/><path d="m432.3 460.97c5.06-1.76 9.6-3.82 14.37-.1 10.62 8.28-19.98 8.17-14.37.1z" fill="#22D3EE"/><path d="m520.62 197.5c5.81-1.77 6.24 16.95-.09 16.94-4.92 0-3.24-15.93.09-16.94z" fill="#22D3EE"/><path d="m119.82 443.91c-4.61.26-12.62.03-16.37-2.91-6.26-4.91 19.45-7.27 16.37 2.91z" fill="#22D3EE"/><path d="m58.65 395.19c6.34-1.88 10.53 8.13 7.33 10.37-5.14 3.62-13.94-8.41-7.33-10.37z" fill="#22D3EE"/><path d="m82.56 91.79c1.66-.44 2.52-.09 3.17 1.51 2.49 7.73-10.02 16.1-8.41 7.29.45-2.47 2.63-8.12 5.23-8.8z" fill="#22D3EE"/><path d="m363.97 507.86c4.93-1.46 17.73 6.68 9.64 8.77-3.1.8-15.38-7.07-9.64-8.77z" fill="#22D3EE"/><path d="m476.13 87.65c5.49-.32 9.46 7.99 5.45 11.97-5.78-1.05-7.2-7.1-5.45-11.97z" fill="#22D3EE"/><path d="m169.71 514.78c2.48 3.32-12.99 5.57-11.92-.42.64-3.55 9.84-.62 11.92.42z" fill="#22D3EE"/><path d="m217.98 295.58c12.41-12.33 31.62-2.59 36.78 11.91 10.13 28.52-23.89 41.34-39.13 20.16-6.44-8.95-5.53-24.24 2.35-32.07z" fill="#0A0F1C"/></svg>